<svg xmlns="http://www.w3.org/2000/svg" viewBox="0 0 256 256" fill="none">
  <defs>
    <linearGradient id="qnBody" x1="44" y1="28" x2="214" y2="230" gradientUnits="userSpaceOnUse">
      <stop offset="0" stop-color="#7C5CFF"/>
      <stop offset="1" stop-color="#37B6FF"/>
    </linearGradient>
  </defs>
  <rect x="42" y="40" width="172" height="172" rx="52" fill="url(#qnBody)"/>
  <circle cx="100" cy="120" r="24" fill="#fff"/>
  <circle cx="154" cy="116" r="24" fill="#fff"/>
  <circle cx="107" cy="121" r="10" fill="#171A2E"/>
  <circle cx="148" cy="118" r="10" fill="#171A2E"/>
  <path d="M87 94c8-8 20-12 31-10" stroke="#171A2E" stroke-width="7" stroke-linecap="round"/>
  <path d="M140 91c8-4 19-3 27 4" stroke="#171A2E" stroke-width="7" stroke-linecap="round"/>
  <path d="M100 161c8 8 18 13 30 13 10 0 18-2 27-8" stroke="#171A2E" stroke-width="8" stroke-linecap="round"/>
  <path d="M180 56l8 9 12-1-5 10 4 12-11-3-10 6-1-12-10-7 11-4 2-10z" fill="#EFFE75"/>
</svg>
