<svg xmlns="http://www.w3.org/2000/svg" viewBox="0 0 256 256" fill="none">
  <defs>
    <linearGradient id="qnBody" x1="44" y1="28" x2="214" y2="230" gradientUnits="userSpaceOnUse">
      <stop offset="0" stop-color="#7C5CFF"/>
      <stop offset="1" stop-color="#37B6FF"/>
    </linearGradient>
    <linearGradient id="qnAccent" x1="156" y1="44" x2="212" y2="98" gradientUnits="userSpaceOnUse">
      <stop offset="0" stop-color="#EFFF6A"/>
      <stop offset="1" stop-color="#52E58F"/>
    </linearGradient>
  </defs>

  <circle cx="128" cy="128" r="112" fill="#0F1222" opacity=".06"/>
  <g id="quiznova-mascot">
    <rect x="42" y="40" width="172" height="172" rx="52" fill="url(#qnBody)"/>
    <path d="M69 97c14-26 45-38 82-31 18 4 33 12 44 24-12-29-40-49-76-49-37 0-67 21-80 56 8 4 19 4 30 0z" fill="#fff" opacity=".16"/>
    <path d="M182 46l10 11 15-1-7 13 6 14-14-4-12 8-2-15-12-9 14-5 2-12z" fill="url(#qnAccent)"/>
    <circle cx="103" cy="118" r="24" fill="#fff"/>
    <circle cx="153" cy="118" r="24" fill="#fff"/>
    <circle cx="107" cy="121" r="10" fill="#171A2E"/>
    <circle cx="149" cy="121" r="10" fill="#171A2E"/>
    <circle cx="111" cy="116" r="3" fill="#fff"/>
    <circle cx="153" cy="116" r="3" fill="#fff"/>
    <path d="M92 157c9 15 23 23 36 23s27-8 36-23" stroke="#171A2E" stroke-width="8" stroke-linecap="round"/>
    <path d="M56 184c22 19 46 28 72 28 30 0 57-11 79-32" stroke="#fff" stroke-opacity=".35" stroke-width="7" stroke-linecap="round"/>
  </g>
</svg>
